# xmcd
# Copyright (C) 1995-1998 Ti Kan
#
# Track frame offsets:
#       150
#       16222
#       31360
#       46572
#       63557
#       79667
#       94812
#       110342
#       124222
#       140637
#
# Disc length: 2076 seconds
#
# Revision: 0
# Processed by: cddbd v1.5.1PL0 Copyright (c) Steve Scherf et al.
# Submitted via: CD-Transfer v1.0
#
DISCID=7d081a0a
DTITLE=The Kinleys - 
DYEAR=97
DGENRE=
TTITLE0=Just between you and me
TTITLE1=Talk to me
TTITLE2=You make it seem so easy
TTITLE3=Crazy kind of love thing
TTITLE4=Please
TTITLE5=The real thing
TTITLE6=Takin' our own sweet time
TTITLE7=Love rules
TTITLE8=Contradiction
TTITLE9=Dance in the boat
EXTD=
EXTT0=
EXTT1=
EXTT2=
EXTT3=
EXTT4=
EXTT5=
EXTT6=
EXTT7=
EXTT8=
EXTT9=
PLAYORDER=
